<?xml version="1.0" encoding="UTF-8" standalone="no"?>
<!DOCTYPE svg PUBLIC "-//W3C//DTD SVG 1.1//EN" "http://www.w3.org/Graphics/SVG/1.1/DTD/svg11.dtd">
<svg width="100%" height="100%" viewBox="0 0 48 48" version="1.1" xmlns="http://www.w3.org/2000/svg" xmlns:xlink="http://www.w3.org/1999/xlink" xml:space="preserve" xmlns:serif="http://www.serif.com/" style="fill-rule:evenodd;clip-rule:evenodd;stroke-linejoin:round;stroke-miterlimit:2;">
    <g transform="matrix(1,0,0,1,-146,-282)">
        <g id="DesignHere">
            <path d="M157,305L160.425,305C161.846,305 163,303.846 163,302.425C163,302.425 163,293.575 163,293.575C163,292.351 162.145,291.326 161,291.065L161,286C161,285.448 160.552,285 160,285L152,285C151.448,285 151,285.448 151,286L151,291.065C149.855,291.326 149,292.351 149,293.575C149,293.575 149,302.425 149,302.425C149,303.846 150.154,305 151.575,305L155,305L155,322.003C155,323.328 155.526,324.599 156.464,325.536C157.401,326.474 158.672,327 159.997,327L166.003,327C167.328,327 168.599,326.474 169.536,325.536C170.474,324.599 171,323.328 171,322.003C171,314.34 171,297.66 171,289.997C171,289.202 171.316,288.44 171.878,287.878C172.44,287.316 173.202,287 173.997,287C173.997,287 180.003,287 180.003,287C181.658,287 183,288.342 183,289.997L183,309L179.312,309C178.036,309 177,310.036 177,311.312C177,311.312 177,318.688 177,318.688C177,319.858 177.871,320.826 179,320.979L179,326C179,326.552 179.448,327 180,327L188,327C188.552,327 189,326.552 189,326L189,320.979C190.129,320.826 191,319.858 191,318.688L191,311.312C191,310.036 189.964,309 188.688,309L185,309L185,289.997C185,287.237 182.763,285 180.003,285C178.12,285 175.88,285 173.997,285C172.672,285 171.401,285.526 170.464,286.464C169.526,287.401 169,288.672 169,289.997C169,297.66 169,314.34 169,322.003C169,322.798 168.684,323.56 168.122,324.122C167.56,324.684 166.798,325 166.003,325C166.003,325 159.997,325 159.997,325C159.202,325 158.44,324.684 157.878,324.122C157.316,323.56 157,322.798 157,322.003L157,305ZM187,325L181,325C181,325 181,321 181,321C181,321 187,321 187,321L187,325ZM183,324L185,324C185.552,324 186,323.552 186,323C186,322.448 185.552,322 185,322L183,322C182.448,322 182,322.448 182,323C182,323.552 182.448,324 183,324ZM189,318.688C189,318.86 188.86,319 188.688,319C188.688,319 179.312,319 179.312,319C179.14,319 179,318.86 179,318.688L179,311.312C179,311.14 179.14,311 179.312,311L188.688,311C188.86,311 189,311.14 189,311.312L189,318.688ZM161,293.575L161,302.425C161,302.742 160.742,303 160.425,303C160.425,303 151.575,303 151.575,303C151.258,303 151,302.742 151,302.425L151,293.575C151,293.258 151.258,293 151.575,293C151.575,293 160.425,293 160.425,293C160.742,293 161,293.258 161,293.575ZM159,287L159,291C159,291 153,291 153,291C153,291 153,287 153,287L159,287ZM155,290L157,290C157.552,290 158,289.552 158,289C158,288.448 157.552,288 157,288L155,288C154.448,288 154,288.448 154,289C154,289.552 154.448,290 155,290Z"/>
        </g>
    </g>
</svg>
