<?xml version="1.0" encoding="UTF-8" standalone="no"?>
<!DOCTYPE svg PUBLIC "-//W3C//DTD SVG 1.1//EN" "http://www.w3.org/Graphics/SVG/1.1/DTD/svg11.dtd">
<svg width="100%" height="100%" viewBox="0 0 48 48" version="1.1" xmlns="http://www.w3.org/2000/svg" xmlns:xlink="http://www.w3.org/1999/xlink" xml:space="preserve" xmlns:serif="http://www.serif.com/" style="fill-rule:evenodd;clip-rule:evenodd;stroke-linejoin:round;stroke-miterlimit:2;">
    <g transform="matrix(1,0,0,1,-78,-146)">
        <g id="DesignHere">
            <path d="M89.001,167L86,167C83.24,167 81,169.24 81,172L81,186C81,188.76 83.24,191 86,191L94,191C96.76,191 99,188.76 99,186L99,172C99,169.24 96.76,167 94,167L91.001,167C91.042,165.889 91.955,165 93.076,165L98.924,165C101.175,165 103,163.175 103,160.924C103,160.318 103,159.682 103,159.076C103,157.93 103.93,157 105.076,157L113,157C115.209,157 117,155.209 117,153C117,151.895 117.895,151 119,151L122,151C122.552,151 123,150.552 123,150C123,149.448 122.552,149 122,149L119,149C116.791,149 115,150.791 115,153L115,153C115,154.105 114.105,155 113,155C113,155 105.076,155 105.076,155C102.825,155 101,156.825 101,159.076C101,159.682 101,160.318 101,160.924C101,162.07 100.07,163 98.924,163L93.076,163C90.85,163 89.041,164.784 89.001,167ZM83,178L97,178L97,186C97,187.656 95.656,189 94,189C94,189 86,189 86,189C84.344,189 83,187.656 83,186L83,178ZM89,169L89,176L83,176L83,172C83,170.344 84.344,169 86,169L89,169ZM91,169L94,169C95.656,169 97,170.344 97,172L97,176L91,176L91,169Z"/>
        </g>
    </g>
</svg>
